<?xml version="1.0" standalone="no"?>
<!DOCTYPE svg PUBLIC "-//W3C//DTD SVG 20010904//EN"
 "http://www.w3.org/TR/2001/REC-SVG-20010904/DTD/svg10.dtd">
<svg version="1.0" xmlns="http://www.w3.org/2000/svg"
 width="1600.000000pt" height="1600.000000pt" viewBox="0 0 1600.000000 1600.000000"
 preserveAspectRatio="xMidYMid meet">
<metadata>
Created by potrace 1.11, written by Peter Selinger 2001-2013
</metadata>
<g transform="translate(0.000000,1600.000000) scale(0.100000,-0.100000)"
fill="#000000" stroke="none">
<path d="M4578 15595 c-2 -1 -59 -6 -128 -9 -69 -4 -136 -9 -150 -11 -14 -2
-56 -6 -95 -10 -38 -3 -81 -7 -95 -10 -14 -2 -47 -7 -75 -10 -74 -9 -367 -55
-387 -61 -10 -3 -30 -7 -45 -10 -110 -19 -419 -92 -564 -135 -41 -12 -94 -27
-119 -34 -25 -7 -106 -34 -180 -60 -74 -25 -139 -48 -145 -49 -5 -2 -17 -6
-25 -9 -8 -3 -60 -23 -115 -43 -103 -38 -353 -143 -415 -174 -19 -10 -39 -18
-43 -18 -15 -1 -392 -189 -478 -239 -48 -28 -94 -53 -103 -56 -9 -4 -68 -38
-132 -77 -64 -38 -118 -70 -120 -70 -3 0 -17 -9 -32 -19 -15 -10 -99 -66 -187
-124 -135 -89 -236 -159 -280 -194 -5 -5 -26 -19 -45 -33 -19 -13 -37 -27 -40
-30 -3 -3 -32 -27 -65 -52 -119 -92 -115 -87 -100 -143 14 -50 47 -157 84
-270 55 -171 208 -570 271 -710 154 -344 292 -626 377 -775 11 -19 37 -66 59
-105 49 -88 47 -84 122 -207 599 -979 1316 -1654 2127 -1998 149 -63 417 -148
556 -175 78 -16 190 -36 224 -40 22 -3 54 -7 70 -10 133 -20 528 -27 650 -12
88 11 128 17 150 21 138 28 192 43 284 75 432 153 749 460 950 921 19 46 99
277 106 308 2 9 13 55 24 102 11 47 22 103 26 124 3 21 8 48 11 60 6 24 12 72
14 101 0 18 2 18 21 -5 39 -49 229 -338 229 -349 0 -6 4 -11 9 -11 5 0 11 -8
14 -17 4 -10 18 -38 33 -63 161 -272 344 -714 449 -1085 9 -33 21 -71 25 -85
10 -29 70 -273 76 -310 4 -23 25 -122 30 -145 1 -5 9 -48 18 -95 8 -47 17 -94
20 -105 3 -18 9 -53 22 -137 2 -16 6 -40 8 -55 12 -73 51 -398 60 -498 11
-111 16 -170 21 -240 3 -38 7 -97 9 -130 5 -58 17 -284 20 -355 l1 -35 -2192
-3 -2193 -2 0 -1000 0 -1000 275 0 c182 0 275 -3 275 -10 0 -6 12 -72 26 -148
14 -75 32 -173 40 -217 8 -44 17 -89 18 -100 5 -26 35 -194 40 -220 5 -27 34
-184 40 -215 2 -14 11 -65 21 -115 9 -49 18 -99 20 -110 2 -11 13 -72 24 -135
12 -63 23 -128 26 -145 3 -16 10 -50 15 -75 5 -25 12 -61 16 -80 3 -19 10 -60
15 -90 6 -30 12 -68 15 -85 3 -16 9 -52 15 -80 5 -27 11 -59 13 -70 4 -22 65
-354 72 -395 3 -14 21 -110 40 -215 19 -104 42 -226 50 -270 8 -44 16 -91 19
-105 6 -32 23 -125 30 -170 3 -19 12 -66 20 -105 7 -38 16 -86 19 -105 3 -19
13 -71 21 -115 9 -44 18 -96 21 -115 3 -19 7 -42 9 -50 2 -8 7 -31 10 -50 5
-30 14 -81 50 -275 3 -16 10 -52 15 -80 5 -27 20 -111 34 -185 14 -74 32 -173
40 -220 8 -47 25 -134 36 -195 11 -60 23 -125 26 -144 3 -18 8 -43 10 -55 2
-11 8 -46 14 -76 6 -30 12 -64 14 -75 2 -11 14 -74 25 -140 12 -66 24 -130 27
-142 l4 -23 3299 0 3300 0 11 53 c6 29 13 64 15 78 9 52 25 145 30 169 3 14 8
41 11 60 3 19 7 42 9 50 2 8 7 31 10 50 3 19 10 58 15 85 5 28 11 64 14 80 3
17 7 41 10 55 10 45 16 75 21 110 3 19 8 46 10 60 16 80 37 194 40 215 2 11
13 72 25 135 12 63 23 124 25 135 2 18 17 97 30 165 8 38 25 131 30 165 3 17
12 64 20 105 14 74 33 181 41 230 2 14 9 45 14 70 5 25 19 99 30 165 12 66 25
140 30 165 8 39 20 103 36 197 2 16 7 39 9 53 10 48 15 75 25 135 6 33 17 92
25 130 8 39 23 122 34 185 11 63 23 126 26 140 2 13 7 40 10 60 3 20 8 47 10
60 19 94 38 198 40 215 3 20 19 106 30 155 3 14 8 45 11 70 3 25 7 47 9 50 2
3 17 82 34 175 16 94 33 184 36 200 3 17 14 77 25 135 10 58 33 182 50 275 18
94 34 184 37 200 2 17 18 102 34 190 16 88 29 163 29 168 0 4 124 7 275 7
l275 0 0 1000 0 1000 -2374 0 -2373 0 9 53 c121 678 385 1277 809 1837 47 63
95 125 105 137 11 12 26 30 34 40 56 69 82 98 159 182 182 198 345 354 561
537 91 77 137 115 234 189 11 8 21 14 22 12 1 -1 4 -49 8 -107 3 -58 8 -118
10 -135 3 -16 7 -50 10 -75 20 -163 102 -460 154 -556 6 -10 25 -48 42 -84
133 -271 373 -508 651 -643 86 -42 217 -93 263 -102 10 -3 42 -11 70 -19 28
-8 85 -20 126 -26 41 -7 84 -14 95 -16 126 -24 576 -25 690 -1 11 3 40 8 65
12 83 14 95 16 155 31 625 151 1184 568 1656 1234 93 132 224 340 316 505 27
47 222 440 251 505 95 212 268 664 307 800 7 25 29 97 50 160 32 100 137 468
150 525 6 24 25 107 55 235 12 52 24 104 26 115 1 11 6 31 9 45 18 74 53 286
48 293 -7 12 -173 133 -278 204 -250 167 -637 376 -885 477 -70 29 -87 36
-140 59 -90 40 -413 150 -535 183 -102 28 -308 77 -405 98 -120 25 -140 28
-240 41 -25 3 -54 8 -65 9 -21 4 -94 14 -155 21 -120 13 -290 20 -535 20 -282
-1 -473 -9 -670 -30 -33 -3 -80 -8 -105 -10 -61 -7 -142 -18 -240 -35 -30 -5
-71 -11 -90 -14 -152 -23 -486 -108 -665 -170 -485 -167 -881 -445 -1099 -771
-188 -282 -278 -584 -280 -940 -1 -147 2 -197 20 -310 10 -66 80 -265 120
-340 94 -178 209 -322 390 -486 44 -40 220 -172 244 -182 8 -4 44 -25 80 -48
36 -23 87 -52 113 -65 l48 -25 -103 -79 c-126 -96 -257 -204 -412 -340 -61
-53 -390 -382 -461 -460 -74 -81 -221 -261 -307 -375 -246 -329 -423 -639
-611 -1075 -16 -36 -16 -36 -23 30 -4 40 -15 123 -19 150 -3 14 -7 45 -11 70
-3 25 -7 52 -9 60 -2 8 -7 38 -10 65 -4 28 -8 57 -10 65 -3 8 -7 33 -11 55
-50 322 -180 831 -284 1115 -18 47 -39 105 -47 130 -9 25 -20 49 -24 55 -5 5
-9 15 -9 23 0 7 -11 38 -25 68 -14 30 -37 82 -51 117 -25 59 -165 339 -201
402 -115 200 -211 349 -327 505 -55 74 -102 137 -106 140 -3 3 -24 28 -47 56
l-43 51 63 23 c179 65 448 219 617 353 81 64 253 234 311 307 171 214 281 467
323 745 13 89 14 397 1 460 -3 17 -12 64 -20 106 -46 248 -183 532 -364 753
-99 120 -252 265 -401 379 -33 26 -199 137 -203 137 -3 0 -38 19 -79 43 -68
41 -188 101 -318 160 -72 33 -238 94 -320 118 -36 11 -101 31 -145 44 -74 23
-185 50 -245 61 -14 3 -50 11 -80 19 -51 12 -109 23 -163 30 -12 1 -58 8 -102
15 -86 13 -87 14 -215 25 -47 4 -98 9 -115 12 -33 5 -632 13 -637 8z"/>
</g>
</svg>
